<svg id="Layer_1" data-name="Layer 1" xmlns="http://www.w3.org/2000/svg" viewBox="0 0 1017.03 429.47"><defs><style>.cls-1{fill:#ee3828;}.cls-2{fill:#cfdbe4;}.cls-3{fill:#556080;}.cls-4{fill:#f26e55;}.cls-5{fill:#324a5f;}.cls-6{fill:#c6c8c5;}.cls-7{fill:#7482bd;}.cls-8{fill:#ebe8d9;}.cls-9{fill:#ccc7ad;}.cls-10{fill:#a7d06a;}.cls-11{font-size:21px;}.cls-11,.cls-12,.cls-13{fill:#3b2416;}.cls-11,.cls-13{font-family:Arial-BoldMT, Arial;font-weight:700;}.cls-13{font-size:48px;}.cls-14{letter-spacing:-0.07em;}</style></defs><title>alur</title><ellipse class="cls-1" cx="190.31" cy="270.94" rx="101.42" ry="107.33"/><path class="cls-2" d="M397.22,393a.85.85,0,0,0-.64-.3H230.43a.85.85,0,0,0-.84,1c0,.16,2.53,15.54,22,15.54H375.44c19.45,0,22-15.38,22-15.54A.86.86,0,0,0,397.22,393ZM326,403.81H301v-5.75h25Z" transform="translate(-123.19 -86.86)"/><path class="cls-2" d="M247.69,386.7H379.32a3.45,3.45,0,0,0,3.45-3.45V302.41a3.45,3.45,0,0,0-3.45-3.45H247.69a3.45,3.45,0,0,0-3.45,3.45v80.85A3.45,3.45,0,0,0,247.69,386.7ZM256.3,311H370.7v63.61H256.3Z" transform="translate(-123.19 -86.86)"/><rect class="cls-3" x="139.13" y="227.74" width="102.36" height="56.47"/><ellipse class="cls-1" cx="546.19" cy="270.94" rx="101.75" ry="107.67"/><polygon class="cls-2" points="572.61 209.63 591.98 209.63 591.98 330.94 504.42 330.94 504.42 209.63 523.79 209.63 572.61 209.63"/><polygon class="cls-4" points="548.2 188.53 527.17 214.91 537.84 214.91 537.84 237.47 558.56 237.47 558.56 214.91 569.23 214.91 548.2 188.53"/><rect class="cls-5" x="520.67" y="245.84" width="8.01" height="5.01"/><rect class="cls-5" x="533.68" y="245.84" width="42.05" height="5.01"/><rect class="cls-5" x="520.67" y="258.96" width="28.53" height="5.01"/><rect class="cls-5" x="554.21" y="258.96" width="21.53" height="5.01"/><rect class="cls-5" x="520.67" y="272.07" width="55.06" height="5.01"/><rect class="cls-5" x="520.67" y="285.19" width="17.86" height="5.01"/><rect class="cls-5" x="543.53" y="285.19" width="32.2" height="5.01"/><rect class="cls-5" x="554.71" y="311.41" width="21.03" height="5.01"/><ellipse class="cls-1" cx="907.44" cy="268.44" rx="102.29" ry="108.25"/><polygon class="cls-6" points="950.27 280.63 950.27 317.04 956.7 317.04 956.7 310.61 969.55 310.61 969.55 242.08 845.34 242.08 845.34 310.61 858.19 310.61 858.19 317.04 864.61 317.04 864.61 280.63 950.27 280.63"/><polygon class="cls-3" points="969.55 280.63 969.55 242.08 845.34 242.08 845.34 280.63 864.61 280.63 950.27 280.63 969.55 280.63"/><rect class="cls-7" x="858.19" y="280.63" width="98.51" height="36.41"/><polygon class="cls-8" points="950.27 205.68 950.27 220.67 950.27 242.08 864.61 242.08 864.61 205.68 950.27 205.68"/><polyline class="cls-8" points="950.27 280.63 950.27 329.89 864.61 329.89 864.61 280.63"/><path class="cls-9" d="M1056.33,386.76h-51.4a2.14,2.14,0,1,1,0-4.28h51.4a2.14,2.14,0,1,1,0,4.28Z" transform="translate(-123.19 -86.86)"/><path class="cls-9" d="M1056.33,397.47h-51.4a2.14,2.14,0,1,1,0-4.28h51.4a2.14,2.14,0,1,1,0,4.28Z" transform="translate(-123.19 -86.86)"/><circle class="cls-10" cx="950.27" cy="261.36" r="8.57"/><text class="cls-11" transform="translate(0 421.57)">Membuat akun pada link pendaftaran</text><text class="cls-11" transform="translate(426.48 421.57)">Upload berkas persyaratan</text><text class="cls-11" transform="translate(790.68 421.57)">Cetak Motion passport</text><path class="cls-12" d="M521.38,367.77l-30.61-30.61a4.65,4.65,0,0,0-6.56,0l-2.78,2.78a4.61,4.61,0,0,0-1.35,3.28,4.7,4.7,0,0,0,1.35,3.32l17.86,17.9H442.55A4.53,4.53,0,0,0,438,369v3.93a4.7,4.7,0,0,0,4.58,4.76h56.94l-18.06,18a4.59,4.59,0,0,0,0,6.51l2.78,2.77a4.65,4.65,0,0,0,6.56,0l30.61-30.61a4.68,4.68,0,0,0,0-6.59Z" transform="translate(-123.19 -86.86)"/><path class="cls-12" d="M890.77,367.77l-30.61-30.61a4.65,4.65,0,0,0-6.56,0l-2.78,2.78a4.61,4.61,0,0,0-1.35,3.28,4.7,4.7,0,0,0,1.35,3.32l17.86,17.9H811.93a4.53,4.53,0,0,0-4.58,4.56v3.93a4.7,4.7,0,0,0,4.58,4.76h56.94l-18.06,18a4.59,4.59,0,0,0,0,6.51l2.78,2.77a4.65,4.65,0,0,0,6.56,0l30.61-30.61a4.68,4.68,0,0,0,0-6.59Z" transform="translate(-123.19 -86.86)"/><text class="cls-13" transform="translate(291.73 41.18)">ALUR PENDAF<tspan class="cls-14" x="343.99" y="0">T</tspan><tspan x="369.75" y="0">ARAN</tspan></text></svg>