<svg id="Layer_1" data-name="Layer 1" xmlns="http://www.w3.org/2000/svg" xmlns:xlink="http://www.w3.org/1999/xlink" viewBox="0 0 1338.33 768"><defs><style>.cls-1{fill:none;}.cls-2{fill:#fa4306;}.cls-3{fill:#e30613;}.cls-4{fill:url(#New_Pattern_3);}.cls-5{fill:url(#New_Pattern_3-3);}.cls-6{fill:url(#New_Pattern_3-5);}.cls-7{fill:url(#New_Pattern_3-7);}.cls-8{fill:url(#New_Pattern_3-9);}.cls-9{fill:url(#New_Pattern_3-13);}.cls-10,.cls-20,.cls-21{fill:#fff;}.cls-11{fill:#cfdbe4;}.cls-12{fill:#556080;}.cls-13{fill:#f26e55;}.cls-14{fill:#324a5f;}.cls-15{fill:#c6c8c5;}.cls-16{fill:#7482bd;}.cls-17{fill:#ebe8d9;}.cls-18{fill:#ccc7ad;}.cls-19{fill:#a7d06a;}.cls-20{font-size:24px;}.cls-20,.cls-21{font-family:Arial-BoldMT, Arial;font-weight:700;}.cls-21{font-size:48px;}.cls-22{letter-spacing:-0.07em;}</style><pattern id="New_Pattern_3" data-name="New Pattern 3" width="22.68" height="22.68" patternTransform="translate(-321.87 -449.94) scale(1.17)" patternUnits="userSpaceOnUse" viewBox="0 0 22.68 22.68"><rect class="cls-1" width="22.68" height="22.68"/><circle class="cls-2" cx="10.94" cy="11.34" r="3.66"/></pattern><pattern id="New_Pattern_3-3" data-name="New Pattern 3" width="22.68" height="22.68" patternTransform="translate(-294.64 -449.94) scale(1.17)" patternUnits="userSpaceOnUse" viewBox="0 0 22.68 22.68"><rect class="cls-1" width="22.68" height="22.68"/><circle class="cls-2" cx="10.94" cy="11.34" r="3.66"/></pattern><pattern id="New_Pattern_3-5" data-name="New Pattern 3" width="22.68" height="22.68" patternTransform="translate(-279.66 -449.94) scale(1.17)" patternUnits="userSpaceOnUse" viewBox="0 0 22.68 22.68"><rect class="cls-1" width="22.68" height="22.68"/><circle class="cls-2" cx="10.94" cy="11.34" r="3.66"/></pattern><pattern id="New_Pattern_3-7" data-name="New Pattern 3" width="22.68" height="22.68" patternTransform="translate(-264.68 -449.94) scale(1.17)" patternUnits="userSpaceOnUse" viewBox="0 0 22.68 22.68"><rect class="cls-1" width="22.68" height="22.68"/><circle class="cls-2" cx="10.94" cy="11.34" r="3.66"/></pattern><pattern id="New_Pattern_3-9" data-name="New Pattern 3" width="22.68" height="22.68" patternTransform="translate(-249.7 -449.94) scale(1.17)" patternUnits="userSpaceOnUse" viewBox="0 0 22.68 22.68"><rect class="cls-1" width="22.68" height="22.68"/><circle class="cls-2" cx="10.94" cy="11.34" r="3.66"/></pattern><pattern id="New_Pattern_3-13" data-name="New Pattern 3" width="22.68" height="22.68" patternTransform="translate(-234.72 -449.94) scale(1.17)" patternUnits="userSpaceOnUse" viewBox="0 0 22.68 22.68"><rect class="cls-1" width="22.68" height="22.68"/><circle class="cls-2" cx="10.94" cy="11.34" r="3.66"/></pattern></defs><title>alur</title><rect class="cls-3" width="1338.33" height="768"/><polygon class="cls-4" points="0.24 7.46 0.24 256.47 166.01 7.46 0.24 7.46"/><polygon class="cls-5" points="353.85 9.52 0 541.03 0 763.22 20.13 763.22 522.68 9.52 353.85 9.52"/><polygon class="cls-6" points="712.76 9.52 210.52 763.92 358.9 763.22 379.04 763.22 881.58 9.52 712.76 9.52"/><polygon class="cls-7" points="1071.66 9.52 569.42 763.92 717.81 763.22 737.94 763.22 1240.49 9.52 1071.66 9.52"/><polygon class="cls-8" points="928.33 763.92 1076.71 763.22 928.79 763.22 928.33 763.92"/><polygon class="cls-3" points="1338.33 148.07 928.79 763.22 1076.71 763.22 1096.85 763.22 1338.33 401.05 1338.33 148.07"/><polygon class="cls-8" points="1338.33 148.07 928.79 763.22 1076.71 763.22 1096.85 763.22 1338.33 401.05 1338.33 148.07"/><polygon class="cls-3" points="1338.33 687.16 1287.7 763.22 1338.33 763.22 1338.33 687.16"/><polygon class="cls-9" points="1338.33 687.16 1287.7 763.22 1338.33 763.22 1338.33 687.16"/><ellipse class="cls-10" cx="232.5" cy="348.32" rx="101.42" ry="107.33"/><path class="cls-11" d="M313.88,383.5a.85.85,0,0,0-.64-.3H147.09a.85.85,0,0,0-.84,1c0,.16,2.53,15.54,22,15.54H292.1c19.45,0,22-15.38,22-15.54A.86.86,0,0,0,313.88,383.5Zm-71.22,10.83h-25v-5.75h25Z" transform="translate(2.33)"/><path class="cls-11" d="M164.35,377.22H296a3.45,3.45,0,0,0,3.45-3.45V292.93a3.45,3.45,0,0,0-3.45-3.45H164.35a3.45,3.45,0,0,0-3.45,3.45v80.85A3.45,3.45,0,0,0,164.35,377.22ZM173,301.55H287.36v63.61H173Z" transform="translate(2.33)"/><rect class="cls-12" x="181.32" y="305.12" width="102.36" height="56.47"/><ellipse class="cls-10" cx="662.92" cy="358.93" rx="101.75" ry="107.67"/><polygon class="cls-11" points="687.32 300.72 706.7 300.72 706.7 422.03 619.13 422.03 619.13 300.72 638.5 300.72 687.32 300.72"/><polygon class="cls-13" points="662.92 279.62 641.88 305.99 652.56 305.99 652.56 328.55 673.27 328.55 673.27 305.99 683.95 305.99 662.92 279.62"/><rect class="cls-14" x="635.38" y="336.93" width="8.01" height="5.01"/><rect class="cls-14" x="648.4" y="336.93" width="42.05" height="5.01"/><rect class="cls-14" x="635.38" y="350.04" width="28.53" height="5.01"/><rect class="cls-14" x="668.92" y="350.04" width="21.53" height="5.01"/><rect class="cls-14" x="635.38" y="363.15" width="55.06" height="5.01"/><rect class="cls-14" x="635.38" y="376.27" width="17.86" height="5.01"/><rect class="cls-14" x="658.24" y="376.27" width="32.2" height="5.01"/><rect class="cls-14" x="669.42" y="402.5" width="21.03" height="5.01"/><ellipse class="cls-10" cx="1104.81" cy="350.04" rx="102.29" ry="108.25"/><polygon class="cls-15" points="1147.64 362.24 1147.64 398.64 1154.07 398.64 1154.07 392.22 1166.91 392.22 1166.91 323.69 1042.7 323.69 1042.7 392.22 1055.55 392.22 1055.55 398.64 1061.98 398.64 1061.98 362.24 1147.64 362.24"/><polygon class="cls-12" points="1166.91 362.24 1166.91 323.69 1042.7 323.69 1042.7 362.24 1061.98 362.24 1147.64 362.24 1166.91 362.24"/><rect class="cls-16" x="1055.55" y="362.24" width="98.51" height="36.41"/><polygon class="cls-17" points="1147.64 287.28 1147.64 302.27 1147.64 323.69 1061.98 323.69 1061.98 287.28 1147.64 287.28"/><polyline class="cls-17" points="1147.64 362.24 1147.64 411.49 1061.98 411.49 1061.98 362.24"/><path class="cls-18" d="M1128.18,381.51h-51.4a2.14,2.14,0,1,1,0-4.28h51.4a2.14,2.14,0,1,1,0,4.28Z" transform="translate(2.33)"/><path class="cls-18" d="M1128.18,392.22h-51.4a2.14,2.14,0,0,1,0-4.28h51.4a2.14,2.14,0,1,1,0,4.28Z" transform="translate(2.33)"/><circle class="cls-19" cx="1147.64" cy="342.96" r="8.57"/><text class="cls-20" transform="translate(113.81 518.42)">Membuat akun pada <tspan x="26" y="28.8">link pendaftaran</tspan></text><text class="cls-20" transform="translate(503.07 518.42)">Upload berkas persyaratan</text><text class="cls-20" transform="translate(974.21 518.42)">Cetak Motion passport</text><path class="cls-10" d="M486,353.5l-30.61-30.61a4.65,4.65,0,0,0-6.56,0l-2.78,2.78a4.61,4.61,0,0,0-1.35,3.28,4.7,4.7,0,0,0,1.35,3.32l17.86,17.9H407.2a4.53,4.53,0,0,0-4.58,4.56v3.93a4.7,4.7,0,0,0,4.58,4.76h56.94l-18.06,18a4.59,4.59,0,0,0,0,6.51l2.78,2.77a4.65,4.65,0,0,0,6.56,0L486,360.09a4.68,4.68,0,0,0,0-6.59Z" transform="translate(2.33)"/><path class="cls-10" d="M920.28,357.12l-30.61-30.61a4.65,4.65,0,0,0-6.56,0l-2.78,2.78a4.61,4.61,0,0,0-1.35,3.28,4.7,4.7,0,0,0,1.35,3.32l17.86,17.9H841.45a4.53,4.53,0,0,0-4.58,4.56v3.93a4.7,4.7,0,0,0,4.58,4.76h56.94l-18.06,18a4.59,4.59,0,0,0,0,6.51l2.78,2.77a4.65,4.65,0,0,0,6.56,0l30.61-30.61a4.68,4.68,0,0,0,0-6.59Z" transform="translate(2.33)"/><text class="cls-21" transform="translate(417.25 131.97)">ALUR PENDAF<tspan class="cls-22" x="343.99" y="0">T</tspan><tspan x="369.75" y="0">ARAN</tspan></text></svg>