<?xml version="1.0" encoding="UTF-8"?>
<!DOCTYPE svg PUBLIC "-//W3C//DTD SVG 1.1//EN" "http://www.w3.org/Graphics/SVG/1.1/DTD/svg11.dtd">
<!-- Creator: CorelDRAW 2017 -->
<svg xmlns="http://www.w3.org/2000/svg" xml:space="preserve" width="151.13mm" height="173.228mm" version="1.1" style="shape-rendering:geometricPrecision; text-rendering:geometricPrecision; image-rendering:optimizeQuality; fill-rule:evenodd; clip-rule:evenodd"
viewBox="0 0 15113 17323"
 xmlns:xlink="http://www.w3.org/1999/xlink">
 <defs>
  <style type="text/css">
   <![CDATA[
    .fil21 {fill:none}
    .fil1 {fill:#010101}
    .fil12 {fill:#020202}
    .fil7 {fill:#1D1B1C}
    .fil4 {fill:#2C2C2C}
    .fil17 {fill:#2E2E2E}
    .fil0 {fill:#2F2F2F}
    .fil18 {fill:#464545}
    .fil15 {fill:#4E4D4D}
    .fil8 {fill:#505050}
    .fil5 {fill:#535353}
    .fil3 {fill:#B00801}
    .fil10 {fill:#B0A7A7}
    .fil20 {fill:#CE625E}
    .fil16 {fill:#FAFAFA}
    .fil14 {fill:#FDFDFD}
    .fil11 {fill:#FEA9BB}
    .fil6 {fill:#FEECB8}
    .fil2 {fill:#FEF2D5}
    .fil9 {fill:#FEFEFE}
    .fil19 {fill:#FF0101}
    .fil13 {fill:#FFF1C9}
   ]]>
  </style>
   <clipPath id="id0">
    <path d="M-1942 -1525l18728 0 0 18591 -18728 0 0 -18591z"/>
   </clipPath>
 </defs>
 <g id="Layer_x0020_1">
  <metadata id="CorelCorpID_0Corel-Layer"/>
  <g>
  </g>
  <g style="clip-path:url(#id0)">
   <g>
    <g id="_2171661236512">
     <path class="fil0" d="M1852 10538c-30,-83 29,-71 134,-115 78,-33 132,-57 196,-89 149,-76 265,-152 409,-215 -484,-883 -218,-2892 530,-3547 -116,385 -389,622 -568,1500 -98,483 -101,1513 132,1894 57,-138 330,-462 468,-521 27,-504 200,-929 424,-1273 183,-282 76,-299 20,-664 -29,-189 26,-761 23,-770 41,426 156,1183 383,1462 452,-153 290,-154 798,-60 -42,26 3,10 -88,38 -221,66 -274,2 -634,176 99,295 354,493 501,739 244,12 524,-56 782,0 184,40 420,232 470,305l50 90c212,83 105,158 363,207 -174,-185 -413,-722 -517,-1007 -313,-858 -331,-1725 -162,-2620 58,-308 226,-919 394,-1109 50,111 -136,551 -176,1007 -89,1016 -72,1621 583,2511 52,71 92,112 141,178 80,110 49,109 165,175 -59,-276 -148,-484 -133,-799 11,-251 72,-612 238,-718 -149,635 -172,1058 143,1678 104,205 128,250 316,352 -145,-662 -310,-1315 -110,-2035 63,-229 81,-179 -38,-371 -96,-156 -282,-435 -341,-607l1040 1270c4,5 12,15 18,23 89,-180 -168,19 84,-48 9,-3 20,-6 31,-8l1156 109 -25 -350c-475,-31 -463,95 -805,175 167,-217 421,-338 808,-348 3,-177 -8,-454 70,-581l56 585c167,70 613,217 766,262 101,-92 138,-136 206,-244 -110,-256 -1104,-1546 -1367,-1864 -94,-114 -64,-18 -94,-161 287,95 847,822 1053,1089l485 582c163,178 331,451 499,611 205,-77 684,-133 929,-187 240,-52 710,-232 859,-247 -57,-331 -109,-546 -204,-841 198,53 248,530 337,721 333,-193 521,-344 736,-640 97,-133 173,-273 229,-447 41,-128 17,-523 61,-579 -177,-451 -992,-1321 -1370,-1642l-1284 -958c-149,-109 -350,-178 -437,-314 625,77 84,156 1389,116 481,-15 961,-54 1444,-64 -102,-96 -662,-393 -831,-485 -306,-167 -579,-311 -874,-479 -507,-288 -370,-248 -1023,-119 -1606,319 -932,344 -1430,-489 -135,-226 -297,-433 -439,-582 -293,-36 -703,107 -1001,155 -363,59 -715,102 -1093,87 6,8 16,10 20,24l899 720c240,143 900,153 1225,405 -92,76 -311,-28 -536,-66 -205,-35 -425,-56 -632,-68 -3788,-210 -3865,2576 -7153,2778 257,345 1191,503 1615,513 -87,172 -76,-6 -381,351 -349,406 -657,866 -853,1390 -219,589 -401,2077 -138,2655 36,-432 27,-720 207,-1093 125,-261 399,-628 609,-687 -94,271 -469,395 -341,1697 45,454 303,1286 584,1479z"/>
     <path class="fil1" d="M5241 24486c614,222 494,413 1380,351 96,1016 -664,1122 -1035,964 -234,-99 -457,-303 -550,-519 -143,-329 122,-532 205,-797zm6132 -64c1013,155 1125,-292 1349,-479 126,179 202,684 174,947 -30,290 -300,457 -534,568 -303,144 -655,186 -885,-33 -202,-193 -84,-631 -104,-1004zm-1062 -3750c57,-57 991,-460 1553,-1006 171,199 604,2286 658,2717 34,271 54,528 71,800 22,342 89,464 -103,694 -131,157 -222,277 -512,344 -242,56 -498,47 -689,-75 -117,-39 -97,-61 -150,-199l-300 -661c-416,-831 -656,-1275 -1229,-2009 -93,-119 -200,-229 -273,-372 275,-43 809,-230 973,-234zm-4644 3800c-102,-25 -357,-185 -396,-276 -78,-177 41,-1648 66,-1875 52,-487 199,-1932 411,-2235 37,17 839,440 840,441 309,103 622,214 981,304 1039,260 339,14 1023,11 -51,92 -86,105 -157,190 -516,617 -1606,2964 -1755,3578 -488,70 -607,38 -1013,-138zm6991 -4511c-58,253 -171,402 -327,510l-135 -504 463 -5zm-7662 -291c-24,-234 49,-175 140,-334 58,-101 61,-250 113,-341l212 58 -56 641 -410 -24zm3061 -2143c-1,-635 96,-1908 290,-2444 185,328 113,936 101,1341 -36,1171 147,1789 29,2808 -53,461 -20,935 -3,1402 -216,-27 -221,-9 -240,-223 -68,-794 -176,-2175 -177,-2884zm-2809 -1977l269 330c-95,92 -181,188 -302,251 -74,-118 -144,-186 -221,-359l253 -223zm356 -370l150 169c52,65 83,92 131,150 -63,117 -162,226 -281,297 -133,-91 -209,-186 -268,-333l268 -283zm3247 190c615,287 713,337 1187,-99 245,-225 572,-641 652,-1139 526,172 716,496 945,993 367,797 1355,3773 1330,4434 -216,183 -464,286 -823,153 -87,-164 -266,-1582 -343,-1939 -66,-308 -141,-618 -223,-917 -81,-297 -201,-590 -273,-862 -38,60 -21,-43 -26,99 -6,153 717,3098 516,3352 -170,215 -919,701 -1238,864 -493,252 -1026,354 -1611,457 -5,-896 100,-1855 119,-2776 9,-452 33,-980 -16,-1424 -39,-355 -195,-892 -197,-1196zm-151 5247l-107 1c-94,-202 -49,-1132 -18,-1397 63,-535 62,-823 4,-1360 -93,-866 29,-2098 -45,-2451 -47,-225 -59,-196 5,-275 117,195 226,942 270,1219 77,484 56,964 49,1458 -5,394 -31,2621 -157,2805zm-2611 -4277c-202,282 -111,414 -274,508 -114,66 -113,9 -213,110l113 23c15,1 101,-7 116,-9 -55,311 -145,603 -204,932 -56,314 -98,610 -143,926 -483,-52 -293,-296 -478,-670 -333,-671 -822,-1013 -599,-1651 72,-207 403,-592 526,-656 63,159 162,317 281,398 235,-133 675,-559 801,-754 -109,-150 -195,-178 -302,-391 136,-240 492,-606 890,-611 160,230 271,1021 424,1114 309,186 901,-315 1066,-403 -58,442 -156,859 -198,1325 -83,932 -7,3521 186,4183 -228,9 -1129,-273 -1349,-364 -467,-193 -703,-364 -1092,-602 -110,-856 411,-2649 549,-3515l-98 107zm1483 -1044c-139,72 -277,122 -438,139l-293 -966c529,30 294,6 565,261 189,178 315,175 522,307 -54,70 -23,37 -93,95l-262 165zm1127 -305c353,-117 721,-291 962,-489 608,-500 243,-579 717,-712 165,351 138,362 -44,744 -121,254 -656,983 -1024,821 -189,-83 -483,-213 -610,-364zm-1200 -481c441,-43 812,-46 1251,-138 402,-84 698,-233 1052,-330 -122,293 -720,591 -1035,707 -535,197 -975,99 -1269,-239zm-4357 -2500c-295,-46 -393,-237 -448,-523 336,80 447,145 448,523zm327 -1871c-155,-288 -54,-918 28,-1202 135,66 183,140 336,220 146,77 235,90 410,123 -133,162 -260,217 -404,397 -118,146 -244,336 -369,462zm174 -1352c84,-177 145,-216 274,-317l274 365c92,112 203,211 278,328 -381,35 -634,-243 -826,-376zm10032 -3577c155,133 327,837 342,1108 33,600 -77,793 -206,1269 -494,-41 -603,137 -842,341l-321 -1051c-89,-191 -139,-668 -337,-721 95,295 147,509 204,841 23,67 41,173 57,253 25,125 12,219 122,197 73,27 202,529 240,609 372,-94 758,-554 1149,-4 455,639 57,1231 -230,1819 -96,196 -203,316 -285,536 -78,210 -173,377 -457,371 -454,-9 -258,-241 -356,-462 -177,331 -120,1600 -698,2137 -373,346 -1233,858 -1710,1101 -629,321 -1354,605 -2151,697 -687,79 -1884,22 -2494,-209 -666,-124 -1337,-357 -1802,-682 -860,-601 -375,-1178 -631,-1760 936,-22 805,64 495,-596 -77,-163 -194,-395 -231,-571 150,103 200,273 392,355 -58,-432 -579,-475 342,-1249 192,-162 411,-247 743,-283 563,-61 514,112 820,139 -50,-73 -286,-265 -470,-305 -258,-56 -538,12 -782,0 -147,-246 -402,-444 -501,-739 360,-174 413,-110 634,-176 91,-27 47,-12 88,-38 -509,-93 -347,-92 -798,60 -227,-279 -342,-1036 -383,-1462 3,10 -52,582 -23,770 56,365 163,382 -20,664 -223,345 -396,769 -424,1273 -18,373 4,720 119,1057 139,406 157,439 358,739 -57,-105 -885,-606 -945,-1276 -233,-381 -230,-1410 -132,-1894 179,-879 452,-1115 568,-1500 -748,655 -1014,2664 -530,3547 51,146 129,304 211,427 98,146 197,227 284,362l624 488c-424,3 -1121,-137 -1355,-377 -223,-85 -427,-296 -505,-480 -282,-192 -540,-1025 -584,-1479 -128,-1302 247,-1426 341,-1697 -210,59 -483,427 -609,687 -179,373 -171,660 -207,1093 -263,-578 -81,-2067 138,-2655 195,-525 504,-984 853,-1390 306,-356 295,-179 381,-351 -425,-10 -1358,-168 -1615,-513 3288,-202 3366,-2988 7153,-2778 208,12 427,33 632,68 225,38 444,142 536,66 -324,-252 -984,-262 -1225,-405l-899 -720c-3,-14 -14,-15 -20,-24 378,15 730,-28 1093,-87 298,-49 708,-191 1001,-155 141,148 304,356 439,582 497,833 -176,808 1430,489 653,-130 516,-169 1023,119 295,168 568,311 874,479 169,92 730,389 831,485 -483,11 -963,50 -1444,64 -1306,40 -764,-40 -1389,-116 87,136 288,205 437,314l1284 958c378,320 1193,1191 1370,1642zm-7893 -5047c46,171 540,406 712,498l747 498c-747,0 -1463,74 -2100,391 -135,67 -266,127 -398,207 -1521,917 -2115,1826 -4006,2256 -167,38 -707,41 -365,315 382,306 722,603 1283,603 -82,122 -94,99 -203,188 -197,161 -381,434 -523,651 -191,291 -368,785 -438,1163 -83,442 -125,2242 346,2588 77,-160 71,-229 71,-463 114,131 80,560 296,1020 163,348 311,601 561,862 276,287 615,350 700,580 79,212 150,662 648,704 0,788 353,1167 1020,1542 326,183 1582,584 2004,593 -130,178 -1355,1262 -1648,1625 -246,305 -345,488 -345,936 0,430 266,637 461,962 266,442 207,335 296,771 45,218 213,377 -1,623 -69,80 -151,141 -151,276 0,415 376,356 783,356 -10,119 -72,289 -100,398 -313,1256 -398,2525 -398,3835 0,304 82,131 -71,427 -93,179 -178,363 -178,569 0,425 564,925 996,925 361,0 677,-81 886,-359 206,-275 161,-419 180,-852 18,-401 400,-1091 565,-1498 185,-458 979,-2060 1311,-2321 111,-87 226,-58 402,-58 34,126 180,264 265,376 299,396 569,773 823,1205 295,501 548,1043 766,1583 47,118 40,145 175,181 0,187 7,386 1,570 -6,198 -84,311 11,485 486,885 1945,208 1945,-486 0,-404 -74,-830 -215,-1137 -127,-276 -69,-710 -115,-1060 -87,-662 -233,-1363 -382,-2002 490,-328 368,-673 585,-874 121,-112 198,-161 198,-371 0,-366 -480,-2050 -622,-2474 -259,-776 -537,-1540 -897,-2270 -340,-691 -991,-688 -1080,-1020 398,-211 774,-455 1146,-704 172,-115 378,-264 518,-407 167,-170 265,-392 364,-597 121,28 191,103 283,98 240,-13 67,-395 321,-954 115,-253 344,-109 586,-695 274,-667 948,-1366 637,-2160 -96,-245 -204,-334 -331,-523 164,-702 214,-665 214,-1459 0,-819 -524,-1585 -1023,-2144 -246,-276 -496,-587 -791,-810 -296,-224 -645,-431 -926,-675l747 36c434,0 779,-35 1174,-36 289,0 1032,164 1032,-142 0,-192 -371,-194 -555,-263l-2196 -1184c-567,-341 -701,-193 -1326,-68 -199,40 -551,96 -691,163 -244,-508 -230,-615 -631,-1077 -293,-338 -761,-170 -1134,-84 -458,107 -1002,121 -1475,162 -275,24 -564,-85 -745,2z"/>
     <path class="fil2" d="M6635 12404c114,-75 1406,-397 1567,-390 126,190 167,717 103,954 -211,786 -1841,876 -1671,-565zm6738 -3032c326,773 -950,685 -375,-249 46,-75 173,-199 250,-248 503,-326 910,248 399,458 67,-145 89,-147 38,-312 -313,-75 -458,105 -557,311l244 40zm-7128 322c-258,-50 -151,-124 -363,-207 61,111 26,-4 45,142 23,25 22,36 38,62 473,252 488,1107 65,1501 -170,158 -494,280 -815,298 -449,25 -571,-66 -854,-236 19,176 97,252 114,437 34,358 -220,760 98,1387 97,191 344,401 509,524 172,128 473,288 621,440 610,231 1807,288 2494,209 796,-92 1521,-376 2151,-697 477,-243 1337,-755 1710,-1101 578,-537 521,-1806 698,-2137 98,221 -98,453 356,462 284,6 379,-161 457,-371 82,-219 189,-339 285,-536 287,-588 685,-1180 230,-1819 -391,-550 -777,-89 -1149,4 -38,-79 -167,-582 -240,-609l71 502 8 38c-54,773 -94,1371 -861,1722 -1018,466 -505,-149 -953,-1238 -150,-364 -415,-823 -627,-1035 -58,61 -49,64 -144,114 60,137 75,108 146,196l-215 -71c-89,171 -149,399 -169,635 106,82 1108,592 940,1012 -79,197 -189,271 -257,428 -79,-54 -83,93 -51,-123 -74,105 19,200 -148,326 -108,230 -129,512 -518,713 -592,305 -1380,206 -1750,-363 -216,-332 -89,-675 -5,-1032 -76,-68 -1,-238 29,-335 -8,-230 244,-406 366,-518 -566,-222 -865,-634 -1229,-1088 -201,599 149,1890 89,2221 -643,3 -1225,-842 -1527,-1248l-36 -44c33,276 122,516 205,772 42,130 250,603 187,661z"/>
     <path class="fil3" d="M10070 16851c326,-144 275,44 410,-66l71 105 276 32c-36,48 93,82 -135,81 -175,0 -77,-50 -74,-64 -164,185 -248,161 -510,174l-39 -263zm-152 139c-151,-23 -135,-77 -144,-248 -18,-346 32,-650 387,-726 41,43 24,9 67,92 26,49 23,55 39,117 152,-69 98,-83 299,-93 53,203 -1,162 150,203 -211,111 -43,210 -264,293 -9,-256 113,-77 38,-431 -358,220 -57,481 -330,542 -106,-278 156,-276 -74,-594 -212,189 -46,623 -168,844zm-1066 -1621c2,305 157,842 197,1196 49,444 26,972 16,1424 -19,921 -124,1880 -119,2776 584,-103 1117,-205 1611,-457 319,-163 1068,-649 1238,-864 201,-255 -522,-3199 -516,-3352 5,-142 -11,-38 26,-99 72,271 191,564 273,862 82,299 157,609 223,917 77,357 256,1775 343,1939 359,133 607,30 823,-153 25,-661 -963,-3636 -1330,-4434 -229,-497 -419,-821 -945,-993 -80,498 -407,914 -652,1139 -474,436 -573,386 -1187,99z"/>
     <path class="fil3" d="M5712 15108c108,213 193,241 302,391 -125,194 -566,621 -801,754 -119,-81 -218,-240 -281,-398 -122,64 -453,448 -526,656 -223,637 267,980 599,1651 185,373 -5,618 478,670 45,-315 87,-611 143,-926 59,-329 149,-621 204,-932 -15,1 -101,9 -116,9l-113 -23c101,-101 99,-44 213,-110 163,-94 72,-225 274,-508l98 -107c-139,866 -659,2659 -549,3515 389,238 626,409 1092,602 220,91 1120,374 1349,364 -193,-662 -268,-3251 -186,-4183 41,-466 140,-883 198,-1325 -165,88 -757,589 -1066,403 -154,-93 -265,-884 -424,-1114 -398,5 -754,371 -890,611z"/>
     <path class="fil4" d="M10311 20672c248,257 532,1152 629,1593 83,380 355,1558 350,1882 191,122 447,130 689,75 290,-67 381,-187 512,-344 191,-230 124,-352 103,-694 -17,-272 -37,-529 -71,-800 -54,-431 -487,-2519 -658,-2717 -562,546 -1496,949 -1553,1006z"/>
     <path class="fil1" d="M9370 7820c-96,-102 -123,-95 -133,-461l633 212 -203 552c-145,-99 -176,-174 -298,-303zm-3125 1874c64,-58 -144,-531 -187,-661 -83,-255 -172,-496 -205,-772l36 44c302,407 884,1251 1527,1248 60,-331 -290,-1622 -89,-2221 364,454 663,866 1229,1088 -122,112 -375,288 -366,518 55,-156 397,-357 643,-421 305,-80 645,-135 941,-34 389,134 1162,620 808,1146 -32,216 -28,69 51,123 67,-157 178,-230 257,-428 168,-420 -834,-930 -940,-1012 20,-236 80,-464 169,-635l215 71c-71,-88 -86,-60 -146,-196 95,-51 86,-53 144,-114 212,212 478,671 627,1035 448,1089 -65,1704 953,1238 768,-352 807,-949 861,-1722l-68 130c-142,423 -164,1365 -1080,1532 679,-408 839,-1232 569,-1400 -16,490 40,509 -216,886 -110,162 -357,372 -560,477 -140,-860 -14,-461 -257,-1400 -67,-84 -132,-292 -206,-414 -89,-146 -159,-231 -229,-368 -168,-160 -336,-433 -499,-611l-485 -582c-206,-267 -765,-994 -1053,-1089 30,144 0,48 94,161 263,318 1257,1607 1367,1864 -68,108 -105,152 -206,244 -153,-46 -599,-192 -766,-262l-56 -585c-78,127 -67,403 -70,581 -387,10 -641,131 -808,348 341,-80 330,-206 805,-175l25 350 84 531c-79,54 -338,127 -447,147 -99,17 -243,-126 -323,-191 -171,-140 -443,-473 -585,-539 -6,-8 -13,-18 -18,-23l-1040 -1270c59,173 245,452 341,607 119,192 101,142 38,371 -200,721 -35,1373 110,2035 -189,-102 -212,-147 -316,-352 -315,-621 -292,-1044 -143,-1678 -166,106 -226,467 -238,718 -14,314 74,523 133,799 -115,-67 -84,-65 -165,-175 -48,-66 -88,-107 -141,-178 -655,-890 -672,-1494 -583,-2511 40,-456 225,-895 176,-1007 -168,191 -336,801 -394,1109 -169,895 -151,1762 162,2620 104,285 343,823 517,1007z"/>
     <path class="fil4" d="M5667 24471c406,177 525,208 1013,138 148,-615 1239,-2962 1755,-3578 71,-85 106,-98 157,-190 -684,4 16,249 -1023,-11 -359,-90 -672,-201 -981,-304 1,147 -292,651 -370,851 -118,305 -203,599 -278,931 -165,731 -195,1413 -273,2163z"/>
     <path class="fil5" d="M5667 24471c78,-751 108,-1432 273,-2163 75,-332 160,-625 278,-931 78,-200 370,-704 370,-851 -1,-1 -804,-424 -840,-441 -212,303 -359,1748 -411,2235 -24,227 -144,1698 -66,1875 40,91 294,251 396,276z"/>
     <path class="fil6" d="M5704 14042c-148,-151 -449,-312 -621,-440 -166,-123 -413,-334 -509,-524 -318,-627 -64,-1029 -98,-1387 -18,-185 -95,-260 -114,-437 -47,-100 -15,-32 -86,-117 -27,-32 -60,-72 -86,-103 -74,67 13,40 -66,0 -16,-8 -63,-57 -69,-63 -90,-94 -76,-71 -126,-182 -192,-82 -242,-253 -392,-355 37,176 154,407 231,571 310,659 441,573 -495,596 256,582 -229,1159 631,1760 465,325 1136,558 1802,682z"/>
     <path class="fil7" d="M9480 8832c199,-63 420,71 497,199 113,187 -41,380 -193,437 -524,196 -736,-498 -305,-635zm-1174 1455c-11,-261 102,-497 293,-546 84,148 -21,539 708,499 618,-33 557,-340 539,-642 185,-6 314,173 461,326 115,-535 -269,-761 -159,-910 -90,-161 -273,-280 -486,-347 -121,117 -1210,-295 -1450,933 -38,193 -69,437 41,617 26,43 30,45 53,69z"/>
     <path class="fil5" d="M11290 24147c4,-324 -267,-1502 -350,-1882 -97,-441 -381,-1336 -629,-1593 -164,4 -698,191 -973,234 73,143 180,253 273,372 574,735 813,1178 1229,2009l300 661c53,138 32,160 150,199z"/>
     <path class="fil8" d="M12650 6878l321 1051c239,-204 348,-382 842,-341 129,-475 239,-669 206,-1269 -15,-271 -187,-975 -342,-1108 -44,56 -20,451 -61,579 -56,174 -132,314 -229,447 -216,297 -403,447 -736,640z"/>
     <path class="fil7" d="M5394 9656c466,-220 656,439 287,585 -403,159 -728,-377 -287,-585zm-1133 1178c25,-208 94,-356 241,-412 86,94 -29,560 677,496 136,-12 340,-70 436,-139 174,-126 125,-223 141,-463 198,0 381,208 375,433 99,-119 114,-391 48,-556 -87,-219 -171,-221 -215,-501 -16,-26 -15,-37 -38,-62 -118,-62 -203,-138 -358,-177 -128,199 -507,-231 -1071,245 -170,143 -497,830 -237,1137z"/>
     <path class="fil9" d="M8058 17527c1,709 109,2090 177,2884 18,214 24,196 240,223 -16,-467 -50,-941 3,-1402 118,-1020 -65,-1638 -29,-2808 12,-405 85,-1013 -101,-1341 -194,536 -291,1809 -290,2444z"/>
     <path class="fil10" d="M11373 24422c21,372 -98,811 104,1004 230,219 582,177 885,33 234,-111 503,-278 534,-568 28,-264 -48,-768 -174,-947 -224,187 -336,634 -1349,479z"/>
     <path class="fil8" d="M10728 7432c70,137 140,222 229,368 74,122 140,330 206,414 569,103 1107,-145 1603,-263l-71 -502c-111,22 -97,-72 -122,-197 -16,-80 -34,-186 -57,-253 -149,14 -619,194 -859,247 -246,54 -724,110 -929,187z"/>
     <path class="fil10" d="M5241 24486c-84,265 -348,467 -205,797 94,216 317,419 550,519 370,157 1130,51 1035,-964 -885,62 -766,-129 -1380,-351z"/>
     <path class="fil0" d="M11164 8213c243,939 117,540 257,1400 203,-105 450,-315 560,-477 256,-376 200,-396 216,-886 270,168 109,992 -569,1400 915,-167 938,-1109 1080,-1532l68 -130 -8 -38c-496,118 -1035,365 -1603,263z"/>
     <path class="fil9" d="M8594 20618l107 -1c126,-184 152,-2411 157,-2805 7,-494 28,-974 -49,-1458 -44,-277 -153,-1024 -270,-1219 -64,80 -52,50 -5,275 74,352 -48,1584 45,2451 58,537 59,825 -4,1360 -31,265 -76,1194 18,1397z"/>
     <path class="fil3" d="M8700 14992c128,151 421,280 610,364 368,162 902,-566 1024,-821 182,-382 209,-393 44,-744 -474,133 -108,212 -717,712 -241,198 -608,372 -962,489z"/>
     <path class="fil8" d="M8306 10287c194,275 644,492 1172,402 214,-36 418,-136 539,-242 166,-146 203,-285 289,-522 -147,-154 -276,-332 -461,-326 18,302 79,609 -539,642 -729,39 -625,-352 -708,-499 -190,49 -304,285 -293,546z"/>
     <path class="fil8" d="M4261 10834c27,162 203,347 323,421 154,94 429,122 629,110 483,-28 829,-216 918,-616 7,-225 -177,-433 -375,-433 -16,240 33,337 -141,463 -96,70 -300,127 -436,139 -707,63 -592,-402 -677,-496 -147,57 -216,204 -241,412z"/>
     <path class="fil11" d="M6777 12626c3,540 321,877 892,738 540,-131 607,-516 485,-1093 -276,333 -857,490 -1377,355z"/>
     <path class="fil12" d="M6777 12626c520,136 1101,-22 1377,-355 122,577 55,962 -485,1093 -571,139 -889,-198 -892,-738zm10 -121c122,-104 1044,-293 1271,-340 -63,363 -939,506 -1271,340zm-151 -101c-171,1440 1460,1351 1671,565 64,-237 23,-765 -103,-954 -161,-7 -1453,315 -1567,390z"/>
     <path class="fil12" d="M8162 9273c-84,357 -211,700 5,1032 370,568 1158,667 1750,363 389,-200 411,-483 518,-713 50,-328 -54,-854 -287,-940 -110,149 274,375 159,910 -87,237 -123,377 -289,522 -121,106 -325,206 -539,242 -528,90 -978,-127 -1172,-402 -23,-24 -27,-26 -53,-69 -110,-180 -79,-424 -41,-617 240,-1228 1329,-816 1450,-933 -186,-163 -757,-127 -967,-5 -122,71 -244,192 -321,284 -92,111 -149,270 -212,327z"/>
     <path class="fil12" d="M4189 11034c26,31 59,72 86,103 71,85 39,16 86,117 283,170 405,261 854,236 321,-18 645,-140 815,-298 424,-394 408,-1249 -65,-1501 44,280 127,281 215,501 66,165 51,438 -48,556 -89,400 -435,588 -918,616 -201,12 -475,-16 -629,-110 -121,-74 -296,-259 -323,-421 -260,-307 67,-994 237,-1137 565,-476 943,-47 1071,-245 -437,-297 -1055,-6 -1245,248 -314,419 -331,811 -135,1335z"/>
     <path class="fil13" d="M7500 14511c294,338 734,436 1269,239 314,-116 913,-414 1035,-707 -354,97 -650,246 -1052,330 -440,92 -810,95 -1251,138z"/>
     <path class="fil8" d="M1852 10538c78,184 282,395 505,480 320,32 488,51 730,-111 -88,-135 -187,-216 -284,-362 -82,-123 -160,-281 -211,-427 -144,63 -261,140 -409,215 -65,33 -118,57 -196,89 -105,44 -164,31 -134,115z"/>
     <path class="fil8" d="M9076 7675l-1156 -109c-11,2 -21,5 -31,8 -252,67 6,-131 -84,48 141,66 414,400 585,539 80,65 223,209 323,191 110,-19 369,-93 447,-147l-84 -531z"/>
     <path class="fil14" d="M8191 8938c-29,97 -105,267 -29,335 63,-57 119,-216 212,-327 77,-92 199,-213 321,-284 210,-122 781,-158 967,5 213,66 397,186 486,347 233,86 337,612 287,940 167,-126 74,-221 148,-326 353,-526 -419,-1012 -808,-1146 -296,-102 -637,-46 -941,34 -245,65 -588,265 -643,421z"/>
     <path class="fil14" d="M3928 10789c50,112 36,89 126,182 6,6 53,55 69,63 80,40 -8,67 66,0 -195,-524 -178,-915 135,-1335 190,-254 808,-545 1245,-248 155,39 239,116 358,177 -19,-146 16,-31 -45,-142l-50 -90c-305,-27 -257,-200 -820,-139 -332,36 -551,121 -743,283 -921,774 -400,818 -342,1249z"/>
     <path class="fil3" d="M7135 15435c161,-17 299,-67 438,-139l262 -165c70,-58 39,-26 93,-95 -207,-132 -333,-128 -522,-307 -270,-255 -36,-231 -565,-261l293 966z"/>
     <path class="fil1" d="M13374 9372l-244 -40c99,-206 243,-386 557,-311 51,165 28,167 -38,312 510,-210 103,-784 -399,-458 -76,49 -203,173 -250,248 -575,935 701,1023 375,249z"/>
     <path class="fil15" d="M2686 9965c60,669 888,1171 945,1276 -201,-300 -219,-333 -358,-739 -116,-338 -137,-684 -119,-1057 -138,59 -412,383 -468,521z"/>
     <path class="fil6" d="M3470 10140c125,-126 251,-316 369,-462 145,-179 272,-234 404,-397 -175,-34 -264,-47 -410,-123 -153,-80 -201,-154 -336,-220 -82,284 -183,914 -28,1202z"/>
     <path class="fil9" d="M9480 8832c-431,137 -220,831 305,635 152,-57 305,-250 193,-437 -77,-128 -298,-262 -497,-199z"/>
     <path class="fil9" d="M5394 9656c-441,208 -116,744 287,585 369,-146 179,-805 -287,-585z"/>
     <path class="fil16" d="M9917 16991c122,-220 -44,-654 168,-844 231,318 -32,316 74,594 273,-61 -28,-322 330,-542 75,354 -47,175 -38,431 220,-84 53,-182 264,-293 -151,-41 -97,0 -150,-203 -201,9 -147,23 -299,93 -16,-62 -13,-68 -39,-117 -43,-83 -27,-49 -67,-92 -355,76 -405,380 -387,726 9,171 -7,225 144,248z"/>
     <path class="fil17" d="M2357 11018c233,240 930,380 1355,377l-624 -488c-242,162 -410,143 -730,111z"/>
     <path class="fil18" d="M9668 8122l203 -552 -633 -212c9,366 36,359 133,461 121,128 153,204 298,303z"/>
     <path class="fil17" d="M3644 8788c191,132 444,411 826,376 -76,-117 -187,-216 -278,-328l-274 -365c-128,101 -189,140 -274,317z"/>
     <path class="fil14" d="M6787 12505c333,165 1208,23 1271,-340 -227,48 -1150,236 -1271,340z"/>
     <path class="fil6" d="M4996 19670l410 24 56 -641 -212 -58c-53,91 -56,240 -113,341 -91,159 -164,100 -140,334z"/>
     <path class="fil19" d="M5337 15463c58,146 135,242 268,333 119,-71 218,-179 281,-297 -48,-59 -79,-85 -131,-150l-150 -169 -268 283z"/>
     <path class="fil14" d="M4996 15772c76,172 147,241 221,359 121,-63 207,-160 302,-251l-269 -330 -253 223z"/>
     <path class="fil20" d="M10070 16851l39 263c262,-13 346,12 510,-174 -2,13 -100,63 74,64 228,1 99,-33 135,-81l-276 -32 -71 -105c-136,110 -84,-78 -410,66z"/>
     <path class="fil6" d="M12331 20470c157,-108 269,-257 327,-510l-463 5 135 504z"/>
     <path class="fil6" d="M3143 12011c-1,-378 -112,-443 -448,-523 56,286 153,477 448,523z"/>
    </g>
   </g>
  </g>
  <polygon class="fil21" points="-1942,-1525 16786,-1525 16786,17065 -1942,17065 "/>
 </g>
</svg>
