<svg xmlns="http://www.w3.org/2000/svg" width="33" height="32" viewBox="0 0 33 32">
    <g fill="#BA031A" fill-rule="nonzero">
        <path d="M32.615 13.604L17.245.277a1.14 1.14 0 0 0-1.49 0L.385 13.604a1.11 1.11 0 0 0-.105 1.578c.412.464 1.126.51 1.595.103l1.19-1.031v16.628c0 .617.506 1.118 1.13 1.118h24.61c.624 0 1.13-.5 1.13-1.118V14.254l1.19 1.032c.214.186.48.277.744.277.315 0 .627-.129.85-.381a1.11 1.11 0 0 0-.104-1.578zM13.89 29.764v-9.21h5.22v9.21h-5.22zm13.785-17.461v17.461H21.37V19.436c0-.617-.506-1.118-1.13-1.118h-7.48c-.624 0-1.13.5-1.13 1.118v10.328H5.326V12.303v-.009L16.5 2.604l11.175 9.69v.009z"/>
        <path d="M14 10c0 .552.5 1 1.116 1h2.768C18.5 11 19 10.552 19 10s-.5-1-1.116-1h-2.768C14.5 9 14 9.448 14 10z"/>
    </g>
</svg>
