<?xml version="1.0" encoding="UTF-8"?>
<svg width="33px" height="32px" viewBox="0 0 33 32" version="1.1" xmlns="http://www.w3.org/2000/svg" xmlns:xlink="http://www.w3.org/1999/xlink">
    <!-- Generator: sketchtool 47.1 (45422) - http://www.bohemiancoding.com/sketch -->
    <title>E9BB0BA5-B813-4CD1-B8F8-AFA7951014D4</title>
    <desc>Created with sketchtool.</desc>
    <defs></defs>
    <g id="Page-1" stroke="none" stroke-width="1" fill="none" fill-rule="evenodd">
        <g id="Registrasi-Calon-Member---Biodata-Diri" transform="translate(-154.000000, -92.000000)" fill-rule="nonzero" fill="#909090">
            <g id="homepage-(1)" transform="translate(154.000000, 92.000000)">
                <path d="M32.6147638,13.6039158 L17.2449641,0.277243967 C16.8184973,-0.0924146557 16.1813739,-0.0924146557 15.7549976,0.277243967 L0.385197825,13.6039158 C-0.0841235316,14.0108712 -0.131137037,14.7172743 0.280231133,15.1817401 C0.691599304,15.6459376 1.40575253,15.6925362 1.87507389,15.2854914 L3.06514844,14.2537029 L3.06514844,30.8819906 C3.06514844,31.4994001 3.57108608,32 4.19528078,32 L12.7601469,32 L20.2398147,32 L28.8045905,32 C29.4287852,32 29.9347228,31.4994001 29.9347228,30.8819906 L29.9347228,14.2537923 L31.1247974,15.2856703 C31.3393417,15.4715281 31.604968,15.5629366 31.8692381,15.5629366 C32.1835053,15.5629366 32.4961451,15.4340525 32.7195497,15.1818296 C33.1311891,14.7172743 33.0841756,14.0109607 32.6147638,13.6039158 Z M13.8902792,29.7639812 L13.8902792,20.5540882 L19.109592,20.5540882 L19.109592,29.7640707 L13.8902792,29.7639812 L13.8902792,29.7639812 Z M27.6746389,12.3025529 L27.6746389,29.7639812 L21.3701279,29.7639812 L21.3701279,19.4360789 C21.3701279,18.8186694 20.8640094,18.3180695 20.2399956,18.3180695 L12.7603277,18.3180695 C12.1362234,18.3180695 11.6301954,18.8186694 11.6301954,19.4360789 L11.6301954,29.7640707 L5.32550352,29.7640707 L5.32550352,12.3025529 C5.32550352,12.2996908 5.32514188,12.2970076 5.32514188,12.2942349 L16.4999808,2.60467118 L27.6750006,12.2941455 C27.675091,12.297097 27.6746389,12.2996908 27.6746389,12.3025529 Z" id="Shape"></path>
                <path d="M14,10 C14,10.55232 14.4996429,11 15.1160714,11 L17.8839286,11 C18.5002679,11 19,10.55232 19,10 C19,9.44768 18.5002679,9 17.8839286,9 L15.1160714,9 C14.4997321,9 14,9.44768 14,10 Z" id="Shape"></path>
            </g>
        </g>
    </g>
</svg>